<html>
<head>
<meta charset="UTF-8">
<meta name="viewport" content="width=device-width, initial-scale=1.0"/>

<style>
.comment
{
    padding-left: 20px;
    margin-top: 4px;
    margin-right: 4px;
    margin-bottom: 4px;
    border: 2px #000 solid;
}
.submission
{
    border: 4px #00f solid;
    padding-left: 20px;
}
.hidden
{
    display: none;
}
</style>
</head>
<body><div class="submission" id="t3_5z4zxm">
    <p class="userinfo">
        <a href="https://www.reddit.com/u/jodorowsthesky">jodorowsthesky</a>
        <span class="score"> | 22 points</span>
        <span class="timestamp"> | Mar 13 2017 13:35:53</span>
    </p>
    <strong>[MOVIE] Timecop (1994) [1080p][x264][1.46GB]</strong>
    <p><p>.nz/#!mx0kEJZB!lVw1vqogHZyUgZZBW0ar9kZFhZQkTlZX4WFzqy8mztM  </p>
<pre><code>Format                                   : MPEG-4
Format profile                           : Base Media
Codec ID                                 : isom (isom/iso2/avc1/mp41)
File size                                : 1.47 GiB
Duration                                 : 1 h 37 min
Overall bit rate                         : 2 149 kb/s
Writing application                      : Lavf57.22.100

Video
ID                                       : 1
Format                                   : AVC
Format/Info                              : Advanced Video Codec
Format profile                           : High@L4.1
Format settings, CABAC                   : Yes
Format settings, ReFrames                : 4 frames
Codec ID                                 : avc1
Codec ID/Info                            : Advanced Video Coding
Duration                                 : 1 h 37 min
Bit rate                                 : 2 050 kb/s
Width                                    : 1 920 pixels
Height                                   : 816 pixels
Display aspect ratio                     : 2.35:1
Frame rate mode                          : Constant
Frame rate                               : 23.976 (24000/1001) FPS
Color space                              : YUV
Chroma subsampling                       : 4:2:0
Bit depth                                : 8 bits
Scan type                                : Progressive
Bits/(Pixel*Frame)                       : 0.055
Stream size                              : 1.40 GiB (95%)
Writing library                          : x264 core 148
Encoding settings                        : cabac=1 / ref=4 / deblock=1:-1:-1 / analyse=0x3:0x133 / me=umh / subme=9 / psy=1 / psy_rd=1.00:0.15 / mixed_ref=1 / me_range=24 / chroma_me=1 / trellis=2 / 8x8dct=1 / cqm=0 / deadzone=21,11 / fast_pskip=0 / chroma_qp_offset=-3 / threads=12 / lookahead_threads=1 / sliced_threads=0 / nr=0 / decimate=1 / interlaced=0 / bluray_compat=0 / constrained_intra=0 / bframes=3 / b_pyramid=2 / b_adapt=2 / b_bias=0 / direct=3 / weightb=1 / open_gop=0 / weightp=2 / keyint=250 / keyint_min=23 / scenecut=40 / intra_refresh=0 / rc_lookahead=60 / rc=2pass / mbtree=1 / bitrate=2050 / ratetol=1.0 / qcomp=0.60 / qpmin=0 / qpmax=69 / qpstep=4 / cplxblur=20.0 / qblur=0.5 / vbv_maxrate=31250 / vbv_bufsize=31250 / nal_hrd=none / filler=0 / ip_ratio=1.40 / aq=1:1.00

Audio
ID                                       : 2
Format                                   : AAC
Format/Info                              : Advanced Audio Codec
Format profile                           : LC
Codec ID                                 : 40
Duration                                 : 1 h 37 min
Bit rate mode                            : Constant
Bit rate                                 : 96.0 kb/s
Channel(s)                               : 2 channels
Channel positions                        : Front: L R
Sampling rate                            : 48.0 kHz
Frame rate                               : 46.875 FPS (1024 spf)
Compression mode                         : Lossy
Stream size                              : 65.9 MiB (4%)
Default                                  : Yes
Alternate group                          : 1
</code></pre></p>
    <p class="toolbar">
        <a href="https://www.reddit.com/r/megalinks/comments/5z4zxm">permalink</a>
    </p>
</div>
<div class="comment" id="t1_deva4vf">
    <p class="userinfo">
        <a
        class="toggle_hide_button"
        href="javascript:void(0)"
        onclick="toggle_collapse(this.parentElement.parentElement)">[-]
        </a>
        <a href="https://www.reddit.com/u/boltrop">boltrop</a>
        <span class="score"> | 3 points</span>
        <span class="timestamp"> | Mar 13 2017 13:36:06</span>
    </p>
    <div class="collapsible">
        <h3><a href="https://images-na.ssl-images-amazon.com/images/M/MV5BMTM2OTg2MDY5M15BMl5BanBnXkFtZTcwNTIwOTM4OA@@._V1_.jpg">Timecop</a> (1994)</h3>
<p><strong>Genre</strong>: Action, Crime, Sci-Fi, Thriller</p>
<p><strong>Rating</strong>:  5.8 (46058 votes)</p>
<p><strong>Certification</strong>: R</p>
<p><strong>Runtime</strong>: 99 min</p>
<hr>
<blockquote>
<p><strong>Director(s)</strong>: <a href="https://www.imdb.com/name/nm0001382/">Peter Hyams</a></p>
<p><strong>Writer(s)</strong>: <a href="https://www.imdb.com/name/nm0894156/">Mark Verheiden</a>, <a href="https://www.imdb.com/name/nm0724700/">Mike Richardson</a></p>
<p><strong>Cast</strong>: <a href="https://www.imdb.com/name/nm0000241/">Jean-Claude Van Damme</a>, <a href="https://www.imdb.com/name/nm0000214/">Mia Sara</a>, <a href="https://www.imdb.com/name/nm0798779/">Ron Silver</a>, <a href="https://www.imdb.com/name/nm0569226/">Bruce McGill</a></p>
<p><strong>Plot</strong>: Max Walker, an officer for a security agency that regulates time travel, must fend for his life against a shady politician who's intent on changing the past to control the future.</p>
</blockquote>
<hr>
<p>^This ^summary ^is ^taken ^from <a href="https://www.imdb.com/title/tt0111438/">^imdb.com</a> ^| ^For ^feedback ^or ^suggestions ^contact <a href="http://www.reddit.com/message/compose/?to=indigo6alpha">^/u/indigo6alpha</a></p>
        <p class="toolbar">
            <a href="https://www.reddit.com/r/megalinks/comments/5z4zxm/_/deva4vf">permalink</a>
        </p>
        
    </div>
</div>

<div class="comment" id="t1_deva4v3">
    <p class="userinfo">
        <a
        class="toggle_hide_button"
        href="javascript:void(0)"
        onclick="toggle_collapse(this.parentElement.parentElement)">[-]
        </a>
        <a href="https://www.reddit.com/u/SubZorro">SubZorro</a>
        <span class="score"> | 1 points</span>
        <span class="timestamp"> | Mar 13 2017 13:36:06</span>
    </p>
    <div class="collapsible">
        <h5>Subtitles for this movie:</h5>
<hr>
<blockquote>
<ul>
<li>
<p><strong>Timecop 1994 720p BluRay.DTS.x264-RightSiZE</strong> - <code>1 CD</code> - <a href="http://dl.opensubtitles.org/en/download/vrf-ed4fda3d/sub/4744478">Download Subtitle</a></p>
</li>
<li>
<p><strong>Timecop (1994) DVDRip</strong> - <code>1 CD</code> - <a href="http://dl.opensubtitles.org/en/download/vrf-5c2ab892/sub/3173242">Download Subtitle</a></p>
</li>
<li>
<p><strong>Timecop.1994.DVDRip.DivX5.avi</strong> - <code>1 CD</code> - <a href="http://dl.opensubtitles.org/en/download/vrf-004389df/sub/3164098">Download Subtitle</a></p>
</li>
<li>
<p><strong>Timecop   (1994)</strong> - <code>1 CD</code> - <a href="http://dl.opensubtitles.org/en/download/vrf-8e17eb95/sub/6087227">Download Subtitle</a></p>
</li>
<li>
<p><strong>Timecop</strong> - <code>1 CD</code> - <a href="http://dl.opensubtitles.org/en/download/vrf-4c4cbf46/sub/3540137">Download Subtitle</a></p>
</li>
<li>
<p><strong>Timecop (1994)</strong> - <code>1 CD</code> - <a href="http://dl.opensubtitles.org/en/download/vrf-5a4bc6dc/sub/51192">Download Subtitle</a></p>
</li>
<li>
<p><strong>Timecop.1994.1080p.BluRay.H264.AAC-RARBG</strong> - <code>1 CD</code> - <a href="http://dl.opensubtitles.org/en/download/vrf-a894f77d/sub/6372482">Download Subtitle</a></p>
</li>
</ul>
</blockquote>
<hr>
<p>^This ^list ^of ^subtitles ^are ^taken ^from <a href="http://www.opensubtitles.org">^opensubtitles.org</a> ^| ^For ^feedback ^or ^suggestions ^contact <a href="http://www.reddit.com/message/compose/?to=indigo6alpha">^/u/indigo6alpha</a></p>
        <p class="toolbar">
            <a href="https://www.reddit.com/r/megalinks/comments/5z4zxm/_/deva4v3">permalink</a>
        </p>
        
    </div>
</div>
</body>

<script>
function toggle_collapse(comment_div)
{
    var button = comment_div.getElementsByClassName("toggle_hide_button")[0];
    var collapsible = comment_div.getElementsByClassName("collapsible")[0];
    if (collapsible.classList.contains("hidden"))
    {
        collapsible.classList.remove("hidden");
        button.innerText = "[-]";
    }
    else
    {
        collapsible.classList.add("hidden");
        button.innerText = "[+]";
    }
}
</script>
</html>
